<svg id="Capa_5" data-name="Capa 5" xmlns="http://www.w3.org/2000/svg" viewBox="0 0 251.62 251.62"><defs><style>.cls-1{fill:#fff;}</style></defs><title>Ojo</title><path class="cls-1" d="M560.74,567.83a.44.44,0,0,0-.35-.13.36.36,0,0,0-.3.24l-2.82,5.13a.37.37,0,0,0,.17.56l7.39,3.8c.37.18.63,0,.81-.49q.55-1.63-1.06-4.35A20.83,20.83,0,0,0,560.74,567.83Z" transform="translate(-374.19 -374.19)"/><path class="cls-1" d="M495.82,404.53l.31,12.7a.56.56,0,0,0,.31.54l5.61,3.18a.87.87,0,0,0,1.23-.33q2.27-3.31,1.65-8.71a10.73,10.73,0,0,0-4.6-8.12,17.59,17.59,0,0,0-2.38-1.22.41.41,0,0,0-.44.05l-1.19,1A1.11,1.11,0,0,0,495.82,404.53Z" transform="translate(-374.19 -374.19)"/><path class="cls-1" d="M581.18,553.92a10.52,10.52,0,0,1-6.75-2.79,17.35,17.35,0,0,1-3.56-5.08.56.56,0,0,0-.28-.23.34.34,0,0,0-.38,0,18.61,18.61,0,0,1-3,1.61L563.9,549a.37.37,0,0,0-.2.55c.41.89,1,2,1.79,3.36a12.48,12.48,0,0,0,3.38,3.66,10.92,10.92,0,0,0,4.74,2,37.35,37.35,0,0,0,4.9.45q2.63,0,3-4.65C581.6,554.11,581.47,554,581.18,553.92Z" transform="translate(-374.19 -374.19)"/><path class="cls-1" d="M576.21,475l.61.23s0,0,.07,0a12.87,12.87,0,0,0,7.76-.78,10.49,10.49,0,0,0,3.94-2.68,18.7,18.7,0,0,0,2.76-4c.48-1-.14-2.16-1.88-3.55a.43.43,0,0,0-.41-.06L576.89,469a.62.62,0,0,0-.4.46l-.77,4.55A.85.85,0,0,0,576.21,475Z" transform="translate(-374.19 -374.19)"/><path class="cls-1" d="M500,374.19A125.81,125.81,0,1,0,625.81,500,125.81,125.81,0,0,0,500,374.19Zm90.73,83.64a18.37,18.37,0,0,0,5-2.79,13.65,13.65,0,0,0,2.79-3.15c.25-.31.49-.38.74-.21s.29.42.11.77a14.29,14.29,0,0,1-2.24,2.88.45.45,0,0,0-.19.44c0,.15.15.25.38.29q5.29.94,8.24,6.71a.5.5,0,0,1-.21.74q-.43.23-.72-.36a4.93,4.93,0,0,0-2.66-2.94q-1.59-.54-5.13.86l-6.18,2.49c-.19.07-.29.18-.3.31a.45.45,0,0,0,.19.39c.91.79,1.89,1.57,2.92,2.33a18.89,18.89,0,0,0,3.28,2c.83.34.86.73.09,1.16a2.68,2.68,0,0,0-1.3,1.35,18.49,18.49,0,0,1-.9,1.73,12.18,12.18,0,0,1-6.65,5.54,10.73,10.73,0,0,1-7.75-.13,24.24,24.24,0,0,1-3-1.49,14.92,14.92,0,0,0-2.9-1.34l0,0a21.27,21.27,0,0,0-4.19-.85c-.55-.05-.66-.34-.34-.87q2.24-3.9,1.82-9.95c0-.39,0-.62.23-.66s.34,0,.49.24q1.13,1.33,3.78.28Zm-42.49-25.71c4.74.76,7.55,1.71,8.45,2.84s1.58,3.89,2,8.27,1.67,7.3,3.64,8.94a9.17,9.17,0,0,0,7.3,1.93q4.1-.53,7.84-5.48t2.86-12.49a22.2,22.2,0,0,0-3.1-9.18,11.47,11.47,0,0,0-6.71-5.13,3.93,3.93,0,0,0-4.42,1.25q-1.71,2-.21,5.73c1.89,4.62,2.22,7.64,1,9.09s-3.68,1.9-7.28,1.39c-.43,0-.64-.22-.65-.49s.18-.42.54-.42c1.3,0,1.9-.58,1.8-1.64a28.82,28.82,0,0,0-1.87-6c-1.72-4.31-1.36-7.5,1-9.57s5.73-2.35,9.94-.82a61,61,0,0,0,6.54,2.35,10.14,10.14,0,0,0,5.29.15.43.43,0,0,1,.45.18,25.51,25.51,0,0,1,4.44,11.15,18.55,18.55,0,0,1-1.64,11.1,17.86,17.86,0,0,1-6.92,7.64,17.36,17.36,0,0,1-9,2.5q-7.74,0-12.27-3.7a16.36,16.36,0,0,1-5.71-10.33q-.54-3-1-5.36a3.61,3.61,0,0,0-2.62-3,.46.46,0,0,1-.38-.54C547.64,432.2,547.85,432.08,548.24,432.12Zm-23.06-7.28a11.16,11.16,0,0,0,4.38-1.94q.6-.42.69.27a7.75,7.75,0,0,0,1.91,4.39c.36.4.27.62-.26.67a7.16,7.16,0,0,0-4.37,1.92q-.63.56-.69-.27a8.63,8.63,0,0,0-1.92-4.37C524.61,425.17,524.7,425,525.18,424.84Zm-32.89-36.41c.44-.07.69,0,.74.25a.37.37,0,0,1-.32.46,2.3,2.3,0,0,0-1.94,2.43,2.81,2.81,0,0,0,1.36,2.12A7.09,7.09,0,0,0,495.2,395l.05,0a33.24,33.24,0,0,1,9.49,5.1q4,3.18,4.69,9.34v.08a21,21,0,0,1-2.11,7.75,13.58,13.58,0,0,1-3.94,4.77l0,.05a12.17,12.17,0,0,1-2.52,1.69,23.15,23.15,0,0,0-2.58,1.53c-.47.34-.78.34-.92,0q-1.5-3.4-8-5.09c-.25-.05-.39-.18-.41-.38a.4.4,0,0,1,.27-.44c1.08-.43,1.6-1.58,1.57-3.45l-.23-10.7c0-.6.26-.89.81-.86a6.72,6.72,0,0,0,5.12-1.84.42.42,0,0,0,.15-.38.49.49,0,0,0-.27-.31l-2-.78c-.66-.25-1.3-.53-1.92-.83a8.06,8.06,0,0,1-3.58-2.74,7.9,7.9,0,0,1-1.41-3.4V394C487.81,390.71,489.43,388.85,492.29,388.43ZM468,394.8c.15-.27.43-.29.82-.06s1,.78,1.54,1.21a11.27,11.27,0,0,1,1.44,1.4.39.39,0,0,0,.42.17.4.4,0,0,0,.31-.29,11.62,11.62,0,0,1,3.12-5,10.63,10.63,0,0,1,5.33-2.79c.39-.08.63,0,.72.34s-.08.51-.49.61a5.65,5.65,0,0,0-3.63,2.37q-1.14,1.78-.24,5.56L482.48,420c.13.54.34.85.62.94l2,.59c.45.05.93-.49,1.44-1.61a.5.5,0,0,1,.64-.33c.3.08.34.3.13.67a26.85,26.85,0,0,0-2.65,6.72c-.12.4-.42.47-.9.22a12.05,12.05,0,0,0-3.11-1.89,9.93,9.93,0,0,0-4-.52c-.28,0-.44-.05-.5-.26a.42.42,0,0,1,.16-.5,2.72,2.72,0,0,0,.93-1.11,3.21,3.21,0,0,0,0-2.16l-4.05-16.81a17.25,17.25,0,0,0-2.14-5.49,9.85,9.85,0,0,0-3-3A.45.45,0,0,1,468,394.8Zm-3.79,14q.57,0,.63.27a.36.36,0,0,1-.2.42,2.85,2.85,0,0,0-.74,1.28,3.32,3.32,0,0,0,.36,2.13l4.28,10c.69,1.61,1.41,2.47,2.16,2.57s1.37-.3,1.48-1.25c0-.36.2-.51.5-.45s.41.34.33.82c-.15.95-.27,1.88-.36,2.81s-.19,1.84-.3,2.77a.82.82,0,0,1-1,.76,9.06,9.06,0,0,1-4.27-1.11,6.61,6.61,0,0,1-2.65-3.23l-5.72-12.89a1.86,1.86,0,0,0-.45-.67c-.65-.45-1-.46-1.17,0l-.53,1.37c-.13.39-.35.53-.68.4s-.42-.44-.29-1a30.52,30.52,0,0,0,.76-3.41q.27-1.65.6-3.3c.12-.41.42-.53.88-.35a26.18,26.18,0,0,0,2.85,1.28A14.91,14.91,0,0,0,464.19,408.84ZM454,398.72a3.83,3.83,0,0,1,1.8-1.63c1.75-.75,2.91-.24,3.48,1.51a4.59,4.59,0,0,1-.5,3.25A4.32,4.32,0,0,1,457,404.1c-.57.24-1.2,0-1.88-.79a6.71,6.71,0,0,1-1.42-2.33A2.59,2.59,0,0,1,454,398.72Zm-22.5,24.79h0q5.2-.87,7.76,2.53l7.87,10.56a1.15,1.15,0,0,0,.91.57l2.86.13a.46.46,0,0,0,.5-.31c.45-1.71.74-2.81.88-3.3a.35.35,0,0,0-.07-.36l-6.43-8.59q-2.6-3.45-4.13-2.88a.41.41,0,0,1-.34-.15.5.5,0,0,1-.06-.39,12.33,12.33,0,0,0,.23-6,.35.35,0,0,1,.15-.4.39.39,0,0,1,.44-.05,10.65,10.65,0,0,0,5.89,1.34.45.45,0,0,1,.36.19.33.33,0,0,1,0,.38q-1,1.41,1.56,4.81l5.45,7.24c1.06,1.41,2,2.08,2.72,2s1.24-.56,1.12-1.55c0-.37.09-.56.4-.57s.48.24.52.72c.06.94.16,1.88.29,2.81s.25,1.85.36,2.76a.77.77,0,0,1-.8,1c-2.76.55-4.88.22-6.36-1a.41.41,0,0,0-.42,0c-.17.06-.25.15-.24.28-.31,1.21-.59,2.46-.85,3.74a8.66,8.66,0,0,0-.18,3.11c0,.5-.24.69-.77.55a13.12,13.12,0,0,0-3.73-.35,11.76,11.76,0,0,0-3.72,1c-.33.1-.54.08-.63-.07a.46.46,0,0,1,0-.51,2.75,2.75,0,0,0,.42-1.39,3.37,3.37,0,0,0-.84-2l-6.54-8.7c-1.05-1.4-2-2.06-2.72-2s-1.27.62-1.14,1.57c.05.37-.08.55-.39.55s-.48-.26-.52-.74c-.06-.91-.16-1.84-.29-2.77s-.26-1.87-.37-2.82A.72.72,0,0,1,431.52,423.51Zm-37.38,31.91a13.43,13.43,0,0,1,4.83-5.1,11.22,11.22,0,0,1,5.5-1.44.34.34,0,0,0,.39-.26.32.32,0,0,0-.1-.46,7.62,7.62,0,0,1-1.38-9.61,7.77,7.77,0,0,1,4.13-3.65,11.26,11.26,0,0,1,6.92.1c1.89.45,3,.27,3.42-.53.17-.31.39-.43.67-.35s.41.32.4.7l-.39,6.4a.39.39,0,0,0,.27.41.41.41,0,0,0,.48-.12,10.05,10.05,0,0,1,5.49-3.16,9.38,9.38,0,0,1,6.75,1q5.18,2.92,5.51,11.87a20.83,20.83,0,0,1-1.34,8.58,16.59,16.59,0,0,1-4.2,6.15,15.65,15.65,0,0,1-7.33,3.74q-4.23.92-4.79,3.74c0,.18,0,.35,0,.53s0,.34,0,.47a.6.6,0,0,1-.05.26.51.51,0,0,1-.79.22.57.57,0,0,1-.3-.48,65.56,65.56,0,0,0-.85-9.84,10.28,10.28,0,0,0-5.66-7.79,13.51,13.51,0,0,0-7.35-1.34,7.64,7.64,0,0,0-6.52,4.37,9,9,0,0,0-.83,6.21,6.39,6.39,0,0,0,3.09,4.75,8,8,0,0,0,5.17.92,7.68,7.68,0,0,0,4.86-3.36,7.44,7.44,0,0,0,1.17-4.69,4.66,4.66,0,0,0-.22-.75.85.85,0,0,1,0-.73.44.44,0,0,1,.52-.27.51.51,0,0,1,.44.38,8,8,0,0,1,.36,2.09,7.14,7.14,0,0,1-.9,3.93q-2.71,5.18-6.37,5.74a10.49,10.49,0,0,1-7.52-2,11.51,11.51,0,0,1-4.9-7.47A12.23,12.23,0,0,1,394.14,455.42Zm12.1,48.73a8.67,8.67,0,0,0-3.29,3.44c-.19.42-.43.43-.72,0a11.16,11.16,0,0,0-3.47-3.29c-.42-.26-.42-.51,0-.74a7.78,7.78,0,0,0,3.32-3.45c.22-.49.46-.49.72,0a7.14,7.14,0,0,0,3.44,3.29C406.73,503.65,406.73,503.89,406.24,504.15Zm3.48,36.57.84,2.19c.14.37.1.59-.13.66a.59.59,0,0,1-.63-.34,3.51,3.51,0,0,0-2-1.58,5.8,5.8,0,0,0-3.26.66,13.06,13.06,0,0,0-3.41,2.39,9.83,9.83,0,0,0-1.88,2.72c-.17.38-.39.49-.67.34s-.32-.44-.13-.86.64-1.1,1-1.69a10.28,10.28,0,0,1,1.2-1.6.4.4,0,0,0,.11-.44.43.43,0,0,0-.32-.28,11.66,11.66,0,0,1-5.39-2.45,10.53,10.53,0,0,1-3.47-4.9.54.54,0,0,1,.26-.73c.28-.15.5,0,.65.38a5.62,5.62,0,0,0,2.83,3.28q1.92.91,5.81-.59a.4.4,0,0,0,.28-.45.41.41,0,0,0-.41-.38,7.37,7.37,0,0,1-5.74-2.89c-.14-.33-.08-.55.19-.66l4.26-1.63c.33-.14.51,0,.55.29a5.65,5.65,0,0,0,3.25,4,1.6,1.6,0,0,0,1.15-.09.58.58,0,0,0,.29-.83l-1.58-4.13a.36.36,0,0,1,.23-.53l1.54-.59a.38.38,0,0,1,.56.23l1.86,4.85c.08.23.27.28.56.17L421.65,530c.52-.2.8-.44.85-.74l.32-2.11c0-.43-.56-.84-1.79-1.21a.41.41,0,0,1-.27-.56c.08-.29.25-.37.51-.25a27.31,27.31,0,0,0,7,1.75c.41.06.52.35.33.86a12.58,12.58,0,0,0-1.53,3.29,9.6,9.6,0,0,0,.08,4.05c.06.27,0,.44-.2.53a.45.45,0,0,1-.52-.09,2.67,2.67,0,0,0-1.22-.79,3.35,3.35,0,0,0-2.15.26l-13.05,5A.45.45,0,0,0,409.72,540.72Zm10.8,26.76v0q-.64-4.19,1.15-6.39a.39.39,0,0,0,.12-.41.47.47,0,0,0-.32-.27q-1.79-.46-3.72-.9a8.23,8.23,0,0,0-3.15-.24c-.47.11-.64-.15-.52-.76.28-1.47.47-2.68.56-3.64a7.82,7.82,0,0,0-1-3.84c-.12-.29-.11-.5.05-.62a.38.38,0,0,1,.51,0,2.83,2.83,0,0,0,1.41.44,3.34,3.34,0,0,0,2-.8l8.84-6.35q2.13-1.53,2-2.67c-.06-.88-.57-1.27-1.52-1.15-.38,0-.56-.1-.56-.41s.24-.47.73-.51c.95-.05,1.89-.13,2.82-.23s1.85-.21,2.78-.3a.78.78,0,0,1,.94.74q.88,5.1-2.74,7.7l-10.71,7.66c-.42.3-.61.6-.59.9l0,0-.05,0-.18,2.83a.5.5,0,0,0,.32.49l3.25,1a.38.38,0,0,0,.36,0l8.32-6c2.25-1.6,3.25-3,3-4a.41.41,0,0,1,.18-.35.36.36,0,0,1,.37,0,12.9,12.9,0,0,0,6,.34.44.44,0,0,1,.39.19.46.46,0,0,1,.06.43,12.05,12.05,0,0,0-1.48,5.88.4.4,0,0,1-.18.32.42.42,0,0,1-.4.06q-1.5-1-4.86,1.44l-6.94,5q-2.13,1.53-2,2.67c0,.9.54,1.3,1.52,1.19.4-.06.6.06.58.37s-.26.47-.74.5c-.94.06-1.87.14-2.8.25s-1.88.21-2.83.3A.73.73,0,0,1,420.52,567.48Zm10.75,17a6.8,6.8,0,0,1-1.47,2.3,2.59,2.59,0,0,1-2.15.75,3.84,3.84,0,0,1-2.26-.91q-2.16-1.86-.18-3.78a4.6,4.6,0,0,1,3.14-1,4.21,4.21,0,0,1,2.8.59C431.62,582.85,431.66,583.53,431.27,584.48Zm9.26-5a32.76,32.76,0,0,0-3.38.82c-1.07.33-2.15.64-3.23.92-.42.07-.66-.14-.71-.63a28.14,28.14,0,0,0-.1-3.13,15.81,15.81,0,0,0-.86-3.5c-.18-.34-.2-.56,0-.68a.36.36,0,0,1,.46,0,2.71,2.71,0,0,0,1.48.1,3.28,3.28,0,0,0,1.75-1.25l7.09-8.26c1.14-1.33,1.59-2.35,1.35-3.08s-.87-1.09-1.77-.77c-.34.13-.55,0-.62-.25s.12-.52.59-.66c.91-.28,1.81-.58,2.67-.91s1.75-.65,2.62-1a.83.83,0,0,1,1.12.56,9,9,0,0,1,.89,4.32,6.59,6.59,0,0,1-1.73,3.8l-9.05,10.82a1.81,1.81,0,0,0-.4.7c-.12.78,0,1.13.48,1.06l1.47-.13c.41-.05.63.09.66.43S441.06,579.34,440.53,579.45Zm26.48-.66L459,594a18.54,18.54,0,0,0-2,5.39,13.68,13.68,0,0,0-.07,4.22c.05.39-.09.6-.4.64s-.51-.14-.59-.53a13.21,13.21,0,0,1-.19-3.54.33.33,0,0,0-.2-.39.38.38,0,0,0-.46,0A9.8,9.8,0,0,1,449,601.2a12.83,12.83,0,0,1-6.28-2c-.39-.22-.5-.49-.34-.79s.42-.34.78-.11a7,7,0,0,0,4.74,1.12c1.62-.2,3.06-1.5,4.31-3.88l2.66-5.11a.39.39,0,0,0,0-.43.38.38,0,0,0-.37-.18c-1.07,0-2.18.06-3.31.16a17.31,17.31,0,0,0-3.3.61c-.86.26-1.13,0-.8-.81a2.84,2.84,0,0,0,.09-1.87c-.17-.66-.32-1.29-.44-1.9a15.72,15.72,0,0,1,1.33-10.13,18.17,18.17,0,0,1,11-9.3,64.73,64.73,0,0,1,13-3.13c.5-.06.79,0,.87.31s-.07.44-.47.52q-4.71,1.14-9.75,2.77t-8.63,9.07a26.18,26.18,0,0,0-2,5.86,9.71,9.71,0,0,0,.45,5.65c.37.91,1.3,1.4,2.78,1.45a.36.36,0,0,0,.39-.23l7.2-13.77c.65-1.23.43-2-.67-2.31a1.48,1.48,0,0,0-.75,0,3.45,3.45,0,0,1-.79.15.48.48,0,0,1-.54-.33.33.33,0,0,1,.26-.48q1.75-.63,3.45-1.08a8.61,8.61,0,0,0,3-1.36c.38-.27.65-.12.82.44a15.54,15.54,0,0,0,2.67,5.61c.37.54.27.81-.29.81C468.89,576.37,467.88,577.11,467,578.79Zm38.73,26a11.08,11.08,0,0,1-4.92,8,14.41,14.41,0,0,1-10.28,2.34,19.74,19.74,0,0,1-9.26-3.51,72.35,72.35,0,0,1-7.28-5.76q-2.13-2.05-4.34-.52c-.41.29-.74.29-1,0s-.18-.58.18-.85l4.83-3.15q3.19-1.8,6.67,1.16a80.45,80.45,0,0,0,7.12,5.59,16,16,0,0,0,7.11,3,8.83,8.83,0,0,0,6.54-1.47,7,7,0,0,0,3-4.78q.91-6.71-5.89-8.21a4.87,4.87,0,0,0-3.63.47c-.42.19-.71.12-.86-.21s0-.6.36-.81a7,7,0,0,1,4-.48,8.94,8.94,0,0,1,5.82,3.13A7.63,7.63,0,0,1,505.74,604.81Zm-18.86-15.13q.45,2,3.33,4.75c2.27,2.15,3.39,4.29,3.37,6.4s-2.16,4-6.41,5.67c-.44.18-.75.14-.92-.12s-.06-.5.35-.75c1.35-.82,1.81-1.81,1.36-3a13.74,13.74,0,0,0-3.27-4.26q-4.5-4.42-3.7-7.82t7.69-5.07c.38-.11.63,0,.77.25s0,.49-.33.66C487.32,587.3,486.58,588.39,486.88,589.68Zm19.31-.39a22.94,22.94,0,0,1-5.64,2.75q-3.27,1-4.77-1a59.42,59.42,0,0,0-7.1-8.08,15.66,15.66,0,0,0-5.2-3.38,6.54,6.54,0,0,0-4.17-.16,35.18,35.18,0,0,0-4,1.57c-.55.28-.92.25-1.11-.07s-.06-.63.37-.9a32.29,32.29,0,0,1,5.57-2.87,12.64,12.64,0,0,1,6.12-.8,16.74,16.74,0,0,1,6.93,2.62,35,35,0,0,1,8,7.46,4.57,4.57,0,0,0,3,1.91,4,4,0,0,0,1.84-.25c.44-.13.71,0,.81.28S506.73,589,506.19,589.29Zm30.87,2.14a11.37,11.37,0,0,0-2,4.35c-.11.49-.35.57-.7.26a7.74,7.74,0,0,0-4.34-2c-.53-.06-.61-.29-.25-.68a7.15,7.15,0,0,0,2-4.33c.06-.55.3-.64.69-.26a8.69,8.69,0,0,0,4.33,2C537.27,590.81,537.35,591,537.06,591.43ZM500,562.32A62.32,62.32,0,1,1,562.32,500,62.33,62.33,0,0,1,500,562.32Zm67.39,11.93a12.55,12.55,0,0,1-1.2,4,26.92,26.92,0,0,1-2.18,3.71c-.27.35-.65.39-1.14.14l-8.47-4.19c-.43-.24-.57-.5-.43-.79l0,0,5.34-10a.43.43,0,0,0-.12-.54q-4.68-3.51-8-2.81a6.74,6.74,0,0,0-4.78,3.48c-.16.34-.34.46-.55.36a.31.31,0,0,1-.15-.47c.59-1.44,1.13-2.85,1.61-4.23a26.63,26.63,0,0,0,1.06-4,1,1,0,0,1,.45-.52c.25-.17.44-.18.56,0a1.11,1.11,0,0,0,1.1.28,7.55,7.55,0,0,1,1.17-.2,11.21,11.21,0,0,1,6.37,1,18,18,0,0,1,5,3.76Q568.14,568.56,567.39,574.25Zm23.28-18c-.23.06-.38-.07-.46-.37-.49-1.81-1.46-2.6-2.91-2.36a27.22,27.22,0,0,1-4.46.45.4.4,0,0,0-.43.39,48.38,48.38,0,0,0-.32,5c0,1.66,0,3.33.11,5a.43.43,0,0,1-.17.41.37.37,0,0,1-.44,0,5.15,5.15,0,0,0-2.58-.55c-.85.05-1.7.13-2.54.22a11.24,11.24,0,0,1-8.35-2.43q-4.38-3.57-4.78-8c-.15-1.48-.38-3.06-.69-4.72a29.81,29.81,0,0,0-1.13-4.38c-.06-.27,0-.44.24-.52,1.06-.43,2.49-1,4.3-1.69a5.05,5.05,0,0,0,3.35-3.16c.09-.33.24-.45.44-.34a.88.88,0,0,1,.4.75q1.53,4.68,4.36,6.69a8.27,8.27,0,0,0,6.32,1.43q5.85-1,7.5.93c1.1,1.25,1.93,3.46,2.48,6.61Q591,556.17,590.67,556.26Zm6.89-22.46q-3,2.91-5.93,2.63a.43.43,0,0,0-.41.17.38.38,0,0,0,0,.45l2.87,5.31a.45.45,0,0,1,0,.39.42.42,0,0,1-.32.23l-5.79.71a.41.41,0,0,1-.39-.2l-2.38-4.2a.5.5,0,0,1,0-.43.34.34,0,0,1,.32-.19l4.35-.59a.47.47,0,0,0,.29-.23.44.44,0,0,0,0-.43l-.94-1.65a.35.35,0,0,0-.21-.18l-11.67-4.42a1.1,1.1,0,0,0-1.13,0l-1.66,1.35c-.37.29-.18,1,.54,2.13a.48.48,0,0,1-.09.66c-.21.19-.42.11-.61-.24a27.49,27.49,0,0,0-4.08-6c-.27-.41-.16-.71.33-.89A15.06,15.06,0,0,0,574,526.6a10.82,10.82,0,0,0,2.64-2.93c.19-.26.37-.36.55-.29a.44.44,0,0,1,.27.46c-.23,1.14.49,2,2.17,2.63l10.18,3.83c1.64.62,2.76.69,3.35.22q1.11-.79.15-1.92c-.27-.31-.27-.54,0-.7s.54,0,.83.35c.56.74,1.15,1.47,1.76,2.18s1.22,1.45,1.82,2.18A.72.72,0,0,1,597.56,533.8Zm3-14.14-9.12,2.5q-.72.17-.84-.3v-.05l-2.64-11a.42.42,0,0,0-.45-.32q-5.82.48-7.82,3.19a6.79,6.79,0,0,0-1.26,5.78c.11.36.05.57-.16.64a.32.32,0,0,1-.44-.26c-.51-1.47-1-2.88-1.6-4.23a27.75,27.75,0,0,0-1.84-3.66,1,1,0,0,1,0-.69c.07-.29.2-.42.39-.4a1.11,1.11,0,0,0,1-.52,6.42,6.42,0,0,1,.74-.93,11.25,11.25,0,0,1,5.42-3.48,17.78,17.78,0,0,1,6.27-.54q7.3.69,10.53,5.43a13,13,0,0,1,1.73,3.77,27.52,27.52,0,0,1,.84,4.21C601.31,519.24,601.05,519.53,600.52,519.66Zm4.6-20.54a5.72,5.72,0,0,1-3.74,1.3,4.77,4.77,0,0,1-3.3-1.07c-.76-.71-1.35-1.29-1.78-1.74s-.87-.89-1.32-1.29c-.91-.78-1.65-.78-2.22,0q-2.64,3.77-4.63,4.51a3.94,3.94,0,0,1-3.69-.36,47.79,47.79,0,0,1-4.46-3.28c-1.42-1.17-2.86-2.32-4.3-3.47-.68-.57-.69-.95,0-1.16.91-.32,1.63-1.41,2.16-3.26s1-3.81,1.45-5.85c.1-.38.35-.43.76-.16s1.05.84,1.58,1.28l1.56,1.34c.8.7,1.46.89,2,.59A7.6,7.6,0,0,0,586.9,485c1.56-1.85,3.11-2.82,4.63-2.92a6.24,6.24,0,0,1,4.19,1.23,22.51,22.51,0,0,1,3.3,3,28.84,28.84,0,0,0,3.36,3.16c.13.12.11.31-.07.55q-2.68,3.75-2.48,6c.14,1.53.7,2.47,1.67,2.84a3.06,3.06,0,0,0,2.91-.43,6.36,6.36,0,0,0,2.25-2.93,7.79,7.79,0,0,0-.38-6.14c-.22-.42-.15-.7.2-.82s.6.07.76.57a9.54,9.54,0,0,1,.24,6.62A7.58,7.58,0,0,1,605.12,499.12Z" transform="translate(-374.19 -374.19)"/><path class="cls-1" d="M596.77,485.45a2.62,2.62,0,0,0-3.86.39,41.12,41.12,0,0,0-3.39,4.5.39.39,0,0,0,.09.56l5.15,4.28a.42.42,0,0,0,.48.09.42.42,0,0,0,.21-.42,8.64,8.64,0,0,1,.79-3.34c.88-2,1.47-3.32,1.79-3.93S597.93,486.25,596.77,485.45Z" transform="translate(-374.19 -374.19)"/><path class="cls-1" d="M583.83,487.36a.42.42,0,0,0-.64.23c-.44,1.27-.87,2.53-1.29,3.8s-.82,2.54-1.21,3.82c-.29.9.29,1.7,1.72,2.41q2.7,1.33,6.22-4.88c.3-.64,0-1.35-.74-2.15Z" transform="translate(-374.19 -374.19)"/><path class="cls-1" d="M405.56,447.29a16.8,16.8,0,0,0,4.57,2.63,10.86,10.86,0,0,1,6.29,6.45,40.27,40.27,0,0,1,2.47,9.15c.72-1.37,2.17-2.4,4.37-3.11a42.31,42.31,0,0,0,4.54-1.68,20.34,20.34,0,0,0,4.05-2.36,9.64,9.64,0,0,0,3.37-4.2,6.59,6.59,0,0,0-.26-5.32,6.93,6.93,0,0,0-3-3.25,7.84,7.84,0,0,0-5.12-.73,9.22,9.22,0,0,0-5.12,2.44,18.4,18.4,0,0,0-3.82,5.7c-.17.34-.39.46-.69.37s-.42-.32-.39-.7l.61-11.07a.47.47,0,0,0-.21-.38.43.43,0,0,0-.44,0q-1.72,1-5.16.19a14.11,14.11,0,0,0-4.43-.41,3.08,3.08,0,0,0-2.67,2.07A3.74,3.74,0,0,0,405.56,447.29Z" transform="translate(-374.19 -374.19)"/><path class="cls-1" d="M595.51,511.45a20.88,20.88,0,0,0-6-1,.47.47,0,0,0-.34.13.36.36,0,0,0-.06.38l1.3,5.71a.36.36,0,0,0,.5.3l8-2.07q.58-.15.27-.9C598.74,512.94,597.51,512.09,595.51,511.45Z" transform="translate(-374.19 -374.19)"/></svg>