<svg id="Capa_5" data-name="Capa 5" xmlns="http://www.w3.org/2000/svg" viewBox="0 0 900 897.62"><defs><style>.cls-1{fill:#fff;}</style></defs><title>Parpado</title><path class="cls-1" d="M915.46,469.55c-10.69,0-106.89-19.44-137.44-42-.87-.65-1.77-1.31-2.65-2s-1.67-1.27-2.49-1.93c-8.74-6.81-50-63.4-66.53-81-50.67-54.21-123.85-88.25-205.22-88.25-82.95,0-157.39,35.38-208.14,91.42-14.45,15.93-53.92,69.13-63.17,76.49-1,.8-2,1.6-3,2.37-.35.28-.68.53-1,.78-.87.68-1.75,1.35-2.62,2-30.83,22.86-128.52,42.18-139.56,42.18A241.38,241.38,0,0,0,50,471.88a240,240,0,0,0,34.56,2.48c10.69,0,108.62,20.19,139.64,43.69,0,1.09,0,2.18-.06,3.29.14-1,.25-2,.39-3q4.82,3.66,9.46,7.58a239.69,239.69,0,0,1,57.39,71,237.4,237.4,0,0,1,22.74,62.82,239.36,239.36,0,0,1,5,43.23c.06,2,.08,4,.08,6.07,0,5.44-.17,10.81-.54,16.14a240.2,240.2,0,0,1-3.68,28.9c-1,5.06-14,40.09-17.65,53.35,5.55-11.44,18.81-45.4,21.52-50.06a233.92,233.92,0,0,1,13.75-21.09A240.31,240.31,0,0,1,405,670.69c2.16-1.28,4.34-2.51,6.54-3.72q3.3,3.1,6.5,6.31a309.48,309.48,0,0,1,44.61,56.2c12,19.37,32.48,134.91,32.48,154.57a309.8,309.8,0,0,0,6.82,64.76,309.79,309.79,0,0,0,6.81-64.76c0-19.92,20.31-134.87,32.19-154.08a309.11,309.11,0,0,1,46.77-58.54c1.52.86,3,1.72,4.54,2.61a240.31,240.31,0,0,1,72.36,65.6,236.1,236.1,0,0,1,13.75,21.09c2.7,4.66,16,38.61,21.51,50.06-3.66-13.26-16.67-48.29-17.64-53.35a238.2,238.2,0,0,1-3.68-28.9q-.56-8-.55-16.14c0-2,0-4,.08-6.07a239.37,239.37,0,0,1,5-43.23c4.65-22.22,22.74-62.82,22.74-62.82l.88-1.5a240.5,240.5,0,0,1,67.21-80c.34-.23.65-.49,1-.72,1-.8,2.1-1.58,3.15-2.35,30.59-22.4,127.37-41.32,138.43-41.32A241.51,241.51,0,0,0,950,472,239.94,239.94,0,0,0,915.46,469.55ZM683.17,582.93h0a278.87,278.87,0,0,1-76.66,46.93l-4,1.62c-6.31,2.45-12.73,4.71-19.27,6.71q-6.31,2-12.76,3.61-10.95,2.82-22.28,4.79a289,289,0,0,1-90.64,1.16h0C449.22,646.53,441,645,433,643h0q-7.92-1.89-15.66-4.2-12.15-3.63-23.79-8.3c-.74-.29-1.46-.58-2.2-.89h0a278.65,278.65,0,0,1-73.86-44.77,268.61,268.61,0,0,1-80.91-117.16v0c36.88-106.38,140.53-183,262.6-183s225.72,76.62,262.6,183A268.26,268.26,0,0,1,683.17,582.93Z" transform="translate(-50 -51.19)"/><path class="cls-1" d="M540.66,197.36a289.56,289.56,0,0,0-73.55-.09A237.77,237.77,0,0,0,496,136.57s0-.09,0-.13c2.33-7.56,4.92-39.47,4.92-47.83a239.19,239.19,0,0,1,2.93-37.42c.81,5.2,1.48,10.45,1.94,15.77q1,10.7,1,21.65c0,7.31,2.62,40.51,5,48.1A238,238,0,0,0,540.66,197.36Z" transform="translate(-50 -51.19)"/></svg>